  0
SECTION
  2
HEADER
  9
$ACADVER
  1
AC1006
  9
$EXTMIN
 10
0.000000
 20
0.000000
 30
0.000000
  9
$EXTMAX
 10
538.000000
 20
370.000000
 30
0.000000
  0
ENDSEC
  0
SECTION
  2
ENTITIES
  0
POLYLINE
  8
0
 66
1
 70
1
  0
VERTEX
  8
0
 10
0.000000
 20
185.000000
 42
0.000000
  0
VERTEX
  8
0
 10
0.000000
 20
0.000000
 42
0.000000
  0
VERTEX
  8
0
 10
65.071429
 20
-0.000000
 42
0.000520
  0
VERTEX
  8
0
 10
103.907749
 20
0.040352
 42
0.005666
  0
VERTEX
  8
0
 10
119.540584
 20
0.250000
 42
0.008154
  0
VERTEX
  8
0
 10
128.203529
 20
0.605811
 42
0.647633
  0
VERTEX
  8
0
 10
128.571429
 20
1.571429
 42
-0.043505
  0
VERTEX
  8
0
 10
127.649888
 20
2.668985
 42
-0.065612
  0
VERTEX
  8
0
 10
127.073566
 20
3.774779
 42
-0.069427
  0
VERTEX
  8
0
 10
126.823417
 20
4.943908
 42
-0.055995
  0
VERTEX
  8
0
 10
126.874478
 20
6.228696
 42
0.061701
  0
VERTEX
  8
0
 10
126.889281
 20
6.750754
 42
0.001932
  0
VERTEX
  8
0
 10
126.678380
 20
8.879284
 42
0.003742
  0
VERTEX
  8
0
 10
126.400832
 20
11.389792
 42
0.002581
  0
VERTEX
  8
0
 10
126.050590
 20
14.228696
 42
-0.013871
  0
VERTEX
  8
0
 10
125.653422
 20
18.180190
 42
-0.003414
  0
VERTEX
  8
0
 10
125.225618
 20
24.691571
 42
-0.003492
  0
VERTEX
  8
0
 10
124.838478
 20
32.159466
 42
-0.003486
  0
VERTEX
  8
0
 10
124.555446
 20
39.636227
 42
0.002119
  0
VERTEX
  8
0
 10
124.304182
 20
46.791568
 42
0.002827
  0
VERTEX
  8
0
 10
124.011776
 20
53.286171
 42
0.001982
  0
VERTEX
  8
0
 10
123.714338
 20
58.727195
 42
0.028963
  0
VERTEX
  8
0
 10
123.490949
 20
60.636227
 42
-0.016238
  0
VERTEX
  8
0
 10
123.245484
 20
62.354151
 42
-0.002322
  0
VERTEX
  8
0
 10
122.873539
 20
65.890017
 42
-0.002638
  0
VERTEX
  8
0
 10
122.474907
 20
70.078511
 42
-0.002248
  0
VERTEX
  8
0
 10
122.097658
 20
74.500000
 42
0.012151
  0
VERTEX
  8
0
 10
121.600173
 20
79.224145
 42
0.009501
  0
VERTEX
  8
0
 10
120.838523
 20
84.325000
 42
0.009627
  0
VERTEX
  8
0
 10
119.947350
 20
89.048454
 42
0.023060
  0
VERTEX
  8
0
 10
119.059245
 20
92.500000
 42
-0.000418
  0
VERTEX
  8
0
 10
118.154583
 20
95.454655
 42
-0.000366
  0
VERTEX
  8
0
 10
117.213978
 20
98.544012
 42
-0.000368
  0
VERTEX
  8
0
 10
116.368562
 20
101.335439
 42
-0.001102
  0
VERTEX
  8
0
 10
115.796184
 20
103.245571
 42
0.096620
  0
VERTEX
  8
0
 10
112.797216
 20
108.983965
 42
0.026719
  0
VERTEX
  8
0
 10
106.001431
 20
116.613860
 42
0.023212
  0
VERTEX
  8
0
 10
98.608765
 20
123.409102
 42
0.176010
  0
VERTEX
  8
0
 10
94.229418
 20
125.000000
 42
-0.100074
  0
VERTEX
  8
0
 10
92.548237
 20
125.339888
 42
-0.108623
  0
VERTEX
  8
0
 10
91.186826
 20
126.302316
 42
-0.103094
  0
VERTEX
  8
0
 10
90.305793
 20
127.793761
 42
-0.082212
  0
VERTEX
  8
0
 10
90.000000
 20
129.640983
 42
-0.092877
  0
VERTEX
  8
0
 10
90.327059
 20
131.386503
 42
-0.161620
  0
VERTEX
  8
0
 10
91.256569
 20
132.510624
 42
-0.073404
  0
VERTEX
  8
0
 10
93.239760
 20
133.379350
 42
-0.009075
  0
VERTEX
  8
0
 10
97.827117
 20
134.541778
 42
0.027474
  0
VERTEX
  8
0
 10
103.578656
 20
136.226595
 42
0.025883
  0
VERTEX
  8
0
 10
109.229660
 20
138.560374
 42
0.027065
  0
VERTEX
  8
0
 10
114.061376
 20
141.184423
 42
0.067260
  0
VERTEX
  8
0
 10
117.168767
 20
143.728008
 42
0.076945
  0
VERTEX
  8
0
 10
119.640243
 20
147.364412
 42
0.031208
  0
VERTEX
  8
0
 10
121.873611
 20
152.940603
 42
0.031070
  0
VERTEX
  8
0
 10
123.473819
 20
159.043344
 42
0.048618
  0
VERTEX
  8
0
 10
124.000000
 20
164.441929
 42
0.053672
  0
VERTEX
  8
0
 10
122.817426
 20
175.426816
 42
0.055217
  0
VERTEX
  8
0
 10
119.325149
 20
185.797967
 42
0.061183
  0
VERTEX
  8
0
 10
114.191293
 20
194.035211
 42
0.124265
  0
VERTEX
  8
0
 10
108.127876
 20
198.587318
 42
0.127730
  0
VERTEX
  8
0
 10
100.166745
 20
199.730606
 42
0.098639
  0
VERTEX
  8
0
 10
91.779629
 20
197.061619
 42
0.076892
  0
VERTEX
  8
0
 10
83.369082
 20
190.558176
 42
0.044214
  0
VERTEX
  8
0
 10
75.388502
 20
180.500000
 42
0.019424
  0
VERTEX
  8
0
 10
70.465612
 20
172.352470
 42
0.032258
  0
VERTEX
  8
0
 10
67.047081
 20
165.094400
 42
0.027376
  0
VERTEX
  8
0
 10
64.244986
 20
156.665475
 42
0.010070
  0
VERTEX
  8
0
 10
61.189552
 20
144.500000
 42
0.080446
  0
VERTEX
  8
0
 10
60.668650
 20
136.544188
 42
0.021193
  0
VERTEX
  8
0
 10
62.423639
 20
123.865362
 42
0.022170
  0
VERTEX
  8
0
 10
65.498886
 20
110.383089
 42
0.033471
  0
VERTEX
  8
0
 10
69.463032
 20
99.014466
 42
0.000000
  0
VERTEX
  8
0
 10
72.223635
 20
92.528931
 42
0.000000
  0
VERTEX
  8
0
 10
67.241251
 20
87.947616
 42
-0.010845
  0
VERTEX
  8
0
 10
64.943922
 20
85.925386
 42
-0.006565
  0
VERTEX
  8
0
 10
62.142233
 20
83.627247
 42
-0.006575
  0
VERTEX
  8
0
 10
59.299454
 20
81.417770
 42
-0.011485
  0
VERTEX
  8
0
 10
56.879433
 20
79.673314
 42
0.003258
  0
VERTEX
  8
0
 10
54.619099
 20
78.099827
 42
0.002850
  0
VERTEX
  8
0
 10
52.275890
 20
76.425786
 42
0.002865
  0
VERTEX
  8
0
 10
50.176011
 20
74.889031
 42
0.008531
  0
VERTEX
  8
0
 10
48.761893
 20
73.803793
 42
-0.030460
  0
VERTEX
  8
0
 10
46.953795
 20
72.538123
 42
-0.122962
  0
VERTEX
  8
0
 10
45.679168
 20
72.136659
 42
-0.082334
  0
VERTEX
  8
0
 10
44.111071
 20
72.300115
 42
-0.009301
  0
VERTEX
  8
0
 10
40.671919
 20
73.314285
 42
-0.056227
  0
VERTEX
  8
0
 10
36.774422
 20
75.044054
 42
-0.042740
  0
VERTEX
  8
0
 10
32.955654
 20
77.744236
 42
-0.042385
  0
VERTEX
  8
0
 10
29.615892
 20
81.085425
 42
-0.052315
  0
VERTEX
  8
0
 10
27.145561
 20
84.728017
 42
-0.034668
  0
VERTEX
  8
0
 10
25.355985
 20
88.713007
 42
-0.011386
  0
VERTEX
  8
0
 10
23.271096
 20
94.799660
 42
-0.011395
  0
VERTEX
  8
0
 10
21.464894
 20
100.977289
 42
-0.034461
  0
VERTEX
  8
0
 10
20.625585
 20
105.277282
 42
-0.062915
  0
VERTEX
  8
0
 10
20.635570
 20
110.839017
 42
-0.025642
  0
VERTEX
  8
0
 10
21.982836
 20
118.296510
 42
-0.025589
  0
VERTEX
  8
0
 10
24.190402
 20
125.939851
 42
-0.039652
  0
VERTEX
  8
0
 10
26.936750
 20
132.231104
 42
0.009484
  0
VERTEX
  8
0
 10
28.109792
 20
134.529606
 42
0.012053
  0
VERTEX
  8
0
 10
29.100170
 20
136.695816
 42
0.010111
  0
VERTEX
  8
0
 10
29.843637
 20
138.533204
 42
0.091321
  0
VERTEX
  8
0
 10
30.000000
 20
139.382188
 42
-0.114424
  0
VERTEX
  8
0
 10
30.479015
 20
141.447949
 42
-0.000949
  0
VERTEX
  8
0
 10
37.848701
 20
156.412545
 42
-0.003725
  0
VERTEX
  8
0
 10
45.673464
 20
171.933456
 42
-0.004160
  0
VERTEX
  8
0
 10
53.450261
 20
186.772336
 42
0.000000
  0
VERTEX
  8
0
 10
60.012705
 20
199.044671
 42
0.000000
  0
VERTEX
  8
0
 10
57.441253
 20
200.022336
 42
0.047247
  0
VERTEX
  8
0
 10
56.071963
 20
200.399672
 42
0.014344
  0
VERTEX
  8
0
 10
53.939298
 20
200.712811
 42
0.014226
  0
VERTEX
  8
0
 10
51.516540
 20
200.928160
 42
0.015052
  0
VERTEX
  8
0
 10
49.130681
 20
201.000000
 42
0.061076
  0
VERTEX
  8
0
 10
44.265551
 20
200.403488
 42
0.061629
  0
VERTEX
  8
0
 10
39.704471
 20
198.649594
 42
0.056259
  0
VERTEX
  8
0
 10
35.373220
 20
195.669836
 42
0.038788
  0
VERTEX
  8
0
 10
31.188920
 20
191.425331
 42
-0.012100
  0
VERTEX
  8
0
 10
25.233582
 20
184.702253
 42
-0.099524
  0
VERTEX
  8
0
 10
21.928760
 20
182.326486
 42
-0.265655
  0
VERTEX
  8
0
 10
19.475129
 20
182.558863
 42
-0.114057
  0
VERTEX
  8
0
 10
17.203490
 20
185.097632
 42
0.032712
  0
VERTEX
  8
0
 10
14.833971
 20
188.809155
 42
0.006310
  0
VERTEX
  8
0
 10
10.031793
 20
195.176012
 42
0.005266
  0
VERTEX
  8
0
 10
5.063942
 20
201.454728
 42
0.050598
  0
VERTEX
  8
0
 10
2.667368
 20
203.872445
 42
-0.053416
  0
VERTEX
  8
0
 10
2.029347
 20
204.523372
 42
-0.042998
  0
VERTEX
  8
0
 10
1.489789
 20
205.342061
 42
-0.044525
  0
VERTEX
  8
0
 10
1.120919
 20
206.195947
 42
-0.079866
  0
VERTEX
  8
0
 10
1.000000
 20
206.948131
 42
-0.151578
  0
VERTEX
  8
0
 10
1.516598
 20
208.613041
 42
-0.049435
  0
VERTEX
  8
0
 10
3.194021
 20
210.602440
 42
-0.048263
  0
VERTEX
  8
0
 10
5.407003
 20
212.373894
 42
-0.071295
  0
VERTEX
  8
0
 10
7.657774
 20
213.423181
 42
0.112946
  0
VERTEX
  8
0
 10
10.249692
 20
214.903176
 42
0.022423
  0
VERTEX
  8
0
 10
14.038356
 20
218.716198
 42
0.024655
  0
VERTEX
  8
0
 10
17.573186
 20
223.016091
 42
0.060819
  0
VERTEX
  8
0
 10
19.589678
 20
226.560387
 42
-0.031934
  0
VERTEX
  8
0
 10
20.241421
 20
227.877086
 42
-0.040845
  0
VERTEX
  8
0
 10
21.010926
 20
228.989614
 42
-0.045881
  0
VERTEX
  8
0
 10
21.780657
 20
229.770105
 42
-0.176974
  0
VERTEX
  8
0
 10
22.409828
 20
230.000000
 42
-0.189788
  0
VERTEX
  8
0
 10
24.037250
 20
229.359189
 42
-0.023230
  0
VERTEX
  8
0
 10
26.765318
 20
226.568867
 42
-0.027927
  0
VERTEX
  8
0
 10
29.278675
 20
223.408329
 42
-0.077317
  0
VERTEX
  8
0
 10
30.540776
 20
220.871526
 42
0.049099
  0
VERTEX
  8
0
 10
30.964308
 20
219.884809
 42
0.028037
  0
VERTEX
  8
0
 10
31.653479
 20
218.784661
 42
0.027766
  0
VERTEX
  8
0
 10
32.478831
 20
217.745464
 42
0.040876
  0
VERTEX
  8
0
 10
33.321485
 20
216.940761
 42
0.058547
  0
VERTEX
  8
0
 10
34.652399
 20
216.099474
 42
0.096795
  0
VERTEX
  8
0
 10
35.935065
 20
215.766832
 42
0.060483
  0
VERTEX
  8
0
 10
37.641256
 20
215.869432
 42
0.011881
  0
VERTEX
  8
0
 10
40.653976
 20
216.494711
 42
0.051700
  0
VERTEX
  8
0
 10
47.161792
 20
218.736238
 42
0.158499
  0
VERTEX
  8
0
 10
50.533951
 20
221.873950
 42
0.108986
  0
VERTEX
  8
0
 10
52.111966
 20
227.163917
 42
0.018198
  0
VERTEX
  8
0
 10
52.500000
 20
237.821763
 42
0.000000
  0
VERTEX
  8
0
 10
52.500000
 20
247.143526
 42
0.000000
  0
VERTEX
  8
0
 10
48.000000
 20
251.060661
 42
-0.000186
  0
VERTEX
  8
0
 10
46.112136
 20
252.705231
 42
-0.000168
  0
VERTEX
  8
0
 10
44.160938
 20
254.407402
 42
-0.000168
  0
VERTEX
  8
0
 10
42.414289
 20
255.933197
 42
-0.000537
  0
VERTEX
  8
0
 10
41.250000
 20
256.953165
 42
-0.092703
  0
VERTEX
  8
0
 10
39.499798
 20
259.183189
 42
-0.141573
  0
VERTEX
  8
0
 10
39.016138
 20
261.578107
 42
-0.148614
  0
VERTEX
  8
0
 10
39.887784
 20
263.779107
 42
-0.105743
  0
VERTEX
  8
0
 10
41.950340
 20
265.474320
 42
-0.018483
  0
VERTEX
  8
0
 10
43.189883
 20
266.058309
 42
-0.018250
  0
VERTEX
  8
0
 10
44.474360
 20
266.551831
 42
-0.018462
  0
VERTEX
  8
0
 10
45.628557
 20
266.900555
 42
-0.064212
  0
VERTEX
  8
0
 10
46.399716
 20
267.000000
 42
0.185053
  0
VERTEX
  8
0
 10
48.802270
 20
267.920731
 42
0.023896
  0
VERTEX
  8
0
 10
52.787934
 20
271.861356
 42
0.028391
  0
VERTEX
  8
0
 10
56.700332
 20
276.635373
 42
0.042889
  0
VERTEX
  8
0
 10
59.480707
 20
281.231548
 42
-0.053539
  0
VERTEX
  8
0
 10
62.857660
 20
286.555102
 42
-0.258688
  0
VERTEX
  8
0
 10
66.050608
 20
287.876003
 42
-0.246535
  0
VERTEX
  8
0
 10
68.982204
 20
285.881338
 42
-0.049759
  0
VERTEX
  8
0
 10
71.460835
 20
279.859598
 42
0.032880
  0
VERTEX
  8
0
 10
73.228791
 20
275.116323
 42
0.072333
  0
VERTEX
  8
0
 10
75.302310
 20
271.859380
 42
0.064555
  0
VERTEX
  8
0
 10
78.371729
 20
269.109626
 42
0.021950
  0
VERTEX
  8
0
 10
83.462852
 20
265.934056
 42
-0.013510
  0
VERTEX
  8
0
 10
85.689215
 20
264.597013
 42
-0.017413
  0
VERTEX
  8
0
 10
87.654628
 20
263.244698
 42
-0.015305
  0
VERTEX
  8
0
 10
89.199505
 20
262.025543
 42
-0.127099
  0
VERTEX
  8
0
 10
89.713331
 20
261.304664
 42
-0.235919
  0
VERTEX
  8
0
 10
89.541485
 20
259.537851
 42
-0.064149
  0
VERTEX
  8
0
 10
87.705314
 20
257.306050
 42
-0.051167
  0
VERTEX
  8
0
 10
84.716947
 20
255.024932
 42
-0.035885
  0
VERTEX
  8
0
 10
80.954901
 20
253.075945
 42
0.044240
  0
VERTEX
  8
0
 10
76.686392
 20
250.773457
 42
0.123103
  0
VERTEX
  8
0
 10
74.399435
 20
248.282479
 42
0.100706
  0
VERTEX
  8
0
 10
73.301538
 20
244.695386
 42
0.024075
  0
VERTEX
  8
0
 10
73.000000
 20
238.436425
 42
0.025449
  0
VERTEX
  8
0
 10
73.334535
 20
231.867980
 42
0.037595
  0
VERTEX
  8
0
 10
74.349771
 20
226.189838
 42
0.044151
  0
VERTEX
  8
0
 10
75.980075
 20
221.585831
 42
0.081240
  0
VERTEX
  8
0
 10
78.188165
 20
218.292954
 42
0.056953
  0
VERTEX
  8
0
 10
80.457121
 20
216.365519
 42
0.035640
  0
VERTEX
  8
0
 10
83.486192
 20
214.634567
 42
0.035965
  0
VERTEX
  8
0
 10
86.625634
 20
213.395131
 42
0.076175
  0
VERTEX
  8
0
 10
89.204152
 20
213.000000
 42
0.077987
  0
VERTEX
  8
0
 10
92.570016
 20
213.528201
 42
0.010314
  0
VERTEX
  8
0
 10
99.412333
 20
215.886753
 42
0.012837
  0
VERTEX
  8
0
 10
106.385490
 20
218.657746
 42
0.029940
  0
VERTEX
  8
0
 10
111.408199
 20
221.169931
 42
-0.005641
  0
VERTEX
  8
0
 10
113.479733
 20
222.335091
 42
-0.006387
  0
VERTEX
  8
0
 10
115.493467
 20
223.404815
 42
-0.005865
  0
VERTEX
  8
0
 10
117.225578
 20
224.271206
 42
-0.034709
  0
VERTEX
  8
0
 10
118.165306
 20
224.649472
 42
0.091068
  0
VERTEX
  8
0
 10
118.842937
 20
225.015212
 42
0.052727
  0
VERTEX
  8
0
 10
119.501814
 20
225.669519
 42
0.050353
  0
VERTEX
  8
0
 10
120.044247
 20
226.492234
 42
0.059162
  0
VERTEX
  8
0
 10
120.376606
 20
227.364383
 42
-0.044619
  0
VERTEX
  8
0
 10
120.716430
 20
228.340287
 42
-0.023638
  0
VERTEX
  8
0
 10
121.298797
 20
229.482425
 42
-0.023332
  0
VERTEX
  8
0
 10
122.009795
 20
230.602863
 42
-0.033263
  0
VERTEX
  8
0
 10
122.749262
 20
231.519899
 42
0.089518
  0
VERTEX
  8
0
 10
124.602691
 20
234.433558
 42
0.017672
  0
VERTEX
  8
0
 10
126.750235
 20
240.268642
 42
0.019164
  0
VERTEX
  8
0
 10
128.491367
 20
246.346689
 42
0.060240
  0
VERTEX
  8
0
 10
129.000000
 20
250.553118
 42
0.085297
  0
VERTEX
  8
0
 10
128.120180
 20
255.673004
 42
0.079831
  0
VERTEX
  8
0
 10
125.574157
 20
260.336935
 42
0.043669
  0
VERTEX
  8
0
 10
120.394246
 20
265.938664
 42
0.008550
  0
VERTEX
  8
0
 10
110.065347
 20
275.000000
 42
0.004173
  0
VERTEX
  8
0
 10
107.967348
 20
276.748104
 42
0.005800
  0
VERTEX
  8
0
 10
106.057370
 20
278.276042
 42
0.003690
  0
VERTEX
  8
0
 10
104.432116
 20
279.526365
 42
0.071474
  0
VERTEX
  8
0
 10
103.877697
 20
279.833333
 42
-0.178050
  0
VERTEX
  8
0
 10
103.539712
 20
280.127008
 42
-0.049102
  0
VERTEX
  8
0
 10
103.257824
 20
280.784731
 42
-0.043086
  0
VERTEX
  8
0
 10
103.064509
 20
281.646548
 42
-0.033648
  0
VERTEX
  8
0
 10
103.000000
 20
282.604048
 42
-0.118776
  0
VERTEX
  8
0
 10
103.344836
 20
284.035188
 42
-0.042388
  0
VERTEX
  8
0
 10
104.464363
 20
285.830366
 42
-0.030990
  0
VERTEX
  8
0
 10
106.332130
 20
288.028608
 42
-0.012825
  0
VERTEX
  8
0
 10
109.110179
 20
290.770715
 42
0.003684
  0
VERTEX
  8
0
 10
114.350052
 20
295.757004
 42
0.009681
  0
VERTEX
  8
0
 10
118.011058
 20
299.432219
 42
0.006794
  0
VERTEX
  8
0
 10
120.632701
 20
302.243468
 42
0.184567
  0
VERTEX
  8
0
 10
120.995373
 20
303.173275
 42
-0.138189
  0
VERTEX
  8
0
 10
121.111214
 20
303.573844
 42
-0.011069
  0
VERTEX
  8
0
 10
121.718638
 20
304.504443
 42
-0.014298
  0
VERTEX
  8
0
 10
122.511883
 20
305.594644
 42
-0.010474
  0
VERTEX
  8
0
 10
123.451054
 20
306.759462
 42
0.037393
  0
VERTEX
  8
0
 10
125.821631
 20
310.046849
 42
0.019241
  0
VERTEX
  8
0
 10
128.307540
 20
314.475171
 42
0.011181
  0
VERTEX
  8
0
 10
130.436693
 20
318.875097
 42
0.250528
  0
VERTEX
  8
0
 10
130.351044
 20
320.241017
 42
-0.191379
  0
VERTEX
  8
0
 10
130.244291
 20
320.843423
 42
-0.007493
  0
VERTEX
  8
0
 10
130.739404
 20
323.080790
 42
-0.012372
  0
VERTEX
  8
0
 10
131.443773
 20
325.755356
 42
-0.008323
  0
VERTEX
  8
0
 10
132.373996
 20
328.774294
 42
0.010210
  0
VERTEX
  8
0
 10
133.384567
 20
332.098531
 42
0.008294
  0
VERTEX
  8
0
 10
134.335194
 20
335.699324
 42
0.008397
  0
VERTEX
  8
0
 10
135.100594
 20
339.047613
 42
0.021503
  0
VERTEX
  8
0
 10
135.508799
 20
341.500000
 42
-0.013406
  0
VERTEX
  8
0
 10
135.839384
 20
343.705998
 42
-0.009018
  0
VERTEX
  8
0
 10
136.329561
 20
346.206250
 42
-0.009087
  0
VERTEX
  8
0
 10
136.891990
 20
348.610432
 42
-0.017745
  0
VERTEX
  8
0
 10
137.442437
 20
350.500000
 42
0.011478
  0
VERTEX
  8
0
 10
138.031843
 20
352.432774
 42
0.005183
  0
VERTEX
  8
0
 10
138.719816
 20
354.991362
 42
0.005128
  0
VERTEX
  8
0
 10
139.390621
 20
357.708354
 42
0.006983
  0
VERTEX
  8
0
 10
139.936088
 20
360.172722
 42
-0.027195
  0
VERTEX
  8
0
 10
141.121317
 20
364.659886
 42
-0.119502
  0
VERTEX
  8
0
 10
142.543763
 20
366.977393
 42
-0.215345
  0
VERTEX
  8
0
 10
144.375608
 20
367.663176
 42
-0.112743
  0
VERTEX
  8
0
 10
146.755399
 20
366.951634
 42
-0.036367
  0
VERTEX
  8
0
 10
147.755226
 20
366.285413
 42
-0.037171
  0
VERTEX
  8
0
 10
148.640183
 20
365.485792
 42
-0.039847
  0
VERTEX
  8
0
 10
149.296838
 20
364.677167
 42
-0.109682
  0
VERTEX
  8
0
 10
149.570383
 20
364.000000
 42
0.017606
  0
VERTEX
  8
0
 10
149.754232
 20
363.095967
 42
0.002272
  0
VERTEX
  8
0
 10
150.224335
 20
361.178125
 42
0.002650
  0
VERTEX
  8
0
 10
150.804734
 20
358.907217
 42
0.002208
  0
VERTEX
  8
0
 10
151.444949
 20
356.500000
 42
-0.014668
  0
VERTEX
  8
0
 10
152.168461
 20
353.478399
 42
-0.005406
  0
VERTEX
  8
0
 10
153.017249
 20
349.178125
 42
-0.005353
  0
VERTEX
  8
0
 10
153.843488
 20
344.459826
 42
-0.006411
  0
VERTEX
  8
0
 10
154.516743
 20
340.000000
 42
0.001482
  0
VERTEX
  8
0
 10
155.904760
 20
330.148427
 42
0.008720
  0
VERTEX
  8
0
 10
156.738242
 20
324.995959
 42
0.013391
  0
VERTEX
  8
0
 10
157.389288
 20
321.858329
 42
0.102358
  0
VERTEX
  8
0
 10
158.021110
 20
320.500000
 42
-0.088891
  0
VERTEX
  8
0
 10
158.388602
 20
319.762104
 42
-0.005205
  0
VERTEX
  8
0
 10
159.071223
 20
317.336630
 42
-0.007745
  0
VERTEX
  8
0
 10
159.813066
 20
314.412335
 42
-0.005618
  0
VERTEX
  8
0
 10
160.551776
 20
311.135336
 42
0.038226
  0
VERTEX
  8
0
 10
162.643020
 20
304.047247
 42
0.048219
  0
VERTEX
  8
0
 10
165.675552
 20
297.921451
 42
0.049378
  0
VERTEX
  8
0
 10
169.757361
 20
292.604301
 42
0.043282
  0
VERTEX
  8
0
 10
174.974353
 20
287.927093
 42
0.007684
  0
VERTEX
  8
0
 10
177.042044
 20
286.422614
 42
0.010899
  0
VERTEX
  8
0
 10
178.929801
 20
285.153583
 42
0.007204
  0
VERTEX
  8
0
 10
180.535145
 20
284.156819
 42
0.136142
  0
VERTEX
  8
0
 10
181.100411
 20
284.000000
 42
-0.292226
  0
VERTEX
  8
0
 10
181.448387
 20
283.777636
 42
-0.045526
  0
VERTEX
  8
0
 10
181.735746
 20
282.971875
 42
-0.038648
  0
VERTEX
  8
0
 10
181.934853
 20
281.841286
 42
-0.024271
  0
VERTEX
  8
0
 10
182.000000
 20
280.500000
 42
-0.023569
  0
VERTEX
  8
0
 10
181.936736
 20
279.158672
 42
-0.037627
  0
VERTEX
  8
0
 10
181.743277
 20
278.028125
 42
-0.043747
  0
VERTEX
  8
0
 10
181.464392
 20
277.219555
 42
-0.296025
  0
VERTEX
  8
0
 10
181.126051
 20
277.000000
 42
0.182915
  0
VERTEX
  8
0
 10
180.547006
 20
276.780836
 42
0.001980
  0
VERTEX
  8
0
 10
177.325172
 20
273.911344
 42
0.005901
  0
VERTEX
  8
0
 10
173.631478
 20
270.515689
 42
0.003767
  0
VERTEX
  8
0
 10
169.414139
 20
266.485427
 42
0.003519
  0
VERTEX
  8
0
 10
162.584152
 20
259.765283
 42
0.038808
  0
VERTEX
  8
0
 10
160.087366
 20
256.853913
 42
0.095598
  0
VERTEX
  8
0
 10
159.025951
 20
254.603386
 42
0.072611
  0
VERTEX
  8
0
 10
158.739124
 20
251.884629
 42
0.027706
  0
VERTEX
  8
0
 10
158.903660
 20
250.162530
 42
0.023392
  0
VERTEX
  8
0
 10
159.262746
 20
248.367404
 42
0.024044
  0
VERTEX
  8
0
 10
159.746817
 20
246.758667
 42
0.058562
  0
VERTEX
  8
0
 10
160.292848
 20
245.649202
 42
-0.027102
  0
VERTEX
  8
0
 10
160.872354
 20
244.637429
 42
-0.015604
  0
VERTEX
  8
0
 10
161.464031
 20
243.363325
 42
-0.015561
  0
VERTEX
  8
0
 10
161.979887
 20
242.042850
 42
-0.025024
  0
VERTEX
  8
0
 10
162.326851
 20
240.885521
 42
0.121356
  0
VERTEX
  8
0
 10
164.199361
 20
237.312916
 42
0.016638
  0
VERTEX
  8
0
 10
170.023945
 20
231.154782
 42
0.019692
  0
VERTEX
  8
0
 10
176.400456
 20
225.325738
 42
0.062193
  0
VERTEX
  8
0
 10
181.243739
 20
222.173508
 42
0.025013
  0
VERTEX
  8
0
 10
183.262233
 20
221.313604
 42
0.023326
  0
VERTEX
  8
0
 10
185.403656
 20
220.636920
 42
0.024018
  0
VERTEX
  8
0
 10
187.361597
 20
220.216740
 42
0.069584
  0
VERTEX
  8
0
 10
188.743739
 20
220.182973
 42
0.059699
  0
VERTEX
  8
0
 10
190.294963
 20
220.552361
 42
0.164499
  0
VERTEX
  8
0
 10
191.158119
 20
221.249086
 42
0.097259
  0
VERTEX
  8
0
 10
191.675750
 20
222.576943
 42
0.013658
  0
VERTEX
  8
0
 10
192.118965
 20
225.500000
 42
-0.002803
  0
VERTEX
  8
0
 10
192.411297
 20
227.757576
 42
-0.001708
  0
VERTEX
  8
0
 10
192.780691
 20
230.421366
 42
-0.001711
  0
VERTEX
  8
0
 10
193.164943
 20
233.059585
 42
-0.003030
  0
VERTEX
  8
0
 10
193.502464
 20
235.232308
 42
0.025744
  0
VERTEX
  8
0
 10
193.835531
 20
238.284453
 42
0.118570
  0
VERTEX
  8
0
 10
193.521435
 20
240.022182
 42
0.082641
  0
VERTEX
  8
0
 10
192.405531
 20
241.726283
 42
0.008868
  0
VERTEX
  8
0
 10
189.133499
 20
245.152314
 42
-0.018847
  0
VERTEX
  8
0
 10
184.951848
 20
249.709453
 42
-0.198678
  0
VERTEX
  8
0
 10
184.190706
 20
252.065155
 42
-0.256252
  0
VERTEX
  8
0
 10
185.405878
 20
253.914090
 42
-0.030992
  0
VERTEX
  8
0
 10
190.000000
 20
255.997097
 42
0.032984
  0
VERTEX
  8
0
 10
193.028548
 20
257.384817
 42
0.055477
  0
VERTEX
  8
0
 10
195.323813
 20
258.976915
 42
0.059412
  0
VERTEX
  8
0
 10
197.106280
 20
260.949454
 42
0.044663
  0
VERTEX
  8
0
 10
198.578182
 20
263.479698
 42
-0.026578
  0
VERTEX
  8
0
 10
199.362606
 20
264.947692
 42
-0.009778
  0
VERTEX
  8
0
 10
200.617897
 20
266.934661
 42
-0.009660
  0
VERTEX
  8
0
 10
202.076223
 20
269.055712
 42
-0.011447
  0
VERTEX
  8
0
 10
203.537573
 20
271.000000
 42
0.000693
  0
VERTEX
  8
0
 10
205.078790
 20
272.961274
 42
0.000512
  0
VERTEX
  8
0
 10
206.779133
 20
275.135817
 42
0.000517
  0
VERTEX
  8
0
 10
208.381659
 20
277.193985
 42
0.001162
  0
VERTEX
  8
0
 10
209.592737
 20
278.760228
 42
-0.019946
  0
VERTEX
  8
0
 10
210.734315
 20
280.127246
 42
-0.015018
  0
VERTEX
  8
0
 10
212.091593
 20
281.539100
 42
-0.015245
  0
VERTEX
  8
0
 10
213.450057
 20
282.790964
 42
-0.033526
  0
VERTEX
  8
0
 10
214.576416
 20
283.642027
 42
-0.020458
  0
VERTEX
  8
0
 10
216.082913
 20
284.543282
 42
-0.126622
  0
VERTEX
  8
0
 10
216.950327
 20
284.761368
 42
-0.150741
  0
VERTEX
  8
0
 10
217.739302
 20
284.513138
 42
-0.032891
  0
VERTEX
  8
0
 10
218.869574
 20
283.618034
 42
-0.086674
  0
VERTEX
  8
0
 10
219.654404
 20
282.611615
 42
-0.023201
  0
VERTEX
  8
0
 10
220.527784
 20
280.770836
 42
-0.022789
  0
VERTEX
  8
0
 10
221.340026
 20
278.552894
 42
-0.021766
  0
VERTEX
  8
0
 10
221.961148
 20
276.236235
 42
0.029030
  0
VERTEX
  8
0
 10
222.911781
 20
272.885807
 42
0.058112
  0
VERTEX
  8
0
 10
224.108823
 20
270.411576
 42
0.045090
  0
VERTEX
  8
0
 10
226.038937
 20
267.908252
 42
0.011676
  0
VERTEX
  8
0
 10
229.588278
 20
264.250000
 42
0.000000
  0
VERTEX
  8
0
 10
235.942160
 20
258.000000
 42
0.000000
  0
VERTEX
  8
0
 10
247.721080
 20
257.978517
 42
-0.003649
  0
VERTEX
  8
0
 10
253.241976
 20
257.928160
 42
-0.001850
  0
VERTEX
  8
0
 10
260.190036
 20
257.788358
 42
-0.001837
  0
VERTEX
  8
0
 10
267.360493
 20
257.591168
 42
-0.002743
  0
VERTEX
  8
0
 10
273.627979
 20
257.361338
 42
0.000000
  0
VERTEX
  8
0
 10
287.755959
 20
256.765642
 42
0.000000
  0
VERTEX
  8
0
 10
294.224079
 20
260.382821
 42
-0.016318
  0
VERTEX
  8
0
 10
296.901517
 20
261.767450
 42
-0.017602
  0
VERTEX
  8
0
 10
299.597605
 20
262.937454
 42
-0.017388
  0
VERTEX
  8
0
 10
301.969953
 20
263.775211
 42
-0.076320
  0
VERTEX
  8
0
 10
303.434041
 20
264.000000
 42
-0.160157
  0
VERTEX
  8
0
 10
307.028880
 20
262.818207
 42
-0.038696
  0
VERTEX
  8
0
 10
311.830634
 20
258.669301
 42
-0.040157
  0
VERTEX
  8
0
 10
316.155483
 20
253.540729
 42
-0.082665
  0
VERTEX
  8
0
 10
318.457798
 20
248.839061
 42
-0.060155
  0
VERTEX
  8
0
 10
319.232610
 20
244.331791
 42
-0.270227
  0
VERTEX
  8
0
 10
318.050204
 20
242.048192
 42
-0.115932
  0
VERTEX
  8
0
 10
314.536598
 20
240.827608
 42
-0.008818
  0
VERTEX
  8
0
 10
304.456900
 20
239.959865
 42
-0.010929
  0
VERTEX
  8
0
 10
287.045722
 20
239.151691
 42
-0.008652
  0
VERTEX
  8
0
 10
268.201525
 20
239.015574
 42
-0.006470
  0
VERTEX
  8
0
 10
251.169674
 20
239.407730
 42
-0.063262
  0
VERTEX
  8
0
 10
244.081240
 20
240.568515
 42
0.013584
  0
VERTEX
  8
0
 10
241.967669
 20
241.134183
 42
0.017183
  0
VERTEX
  8
0
 10
239.985363
 20
241.535972
 42
0.015344
  0
VERTEX
  8
0
 10
238.326632
 20
241.761152
 42
0.118209
  0
VERTEX
  8
0
 10
237.554772
 20
241.659391
 42
0.289675
  0
VERTEX
  8
0
 10
236.574369
 20
240.343908
 42
0.003382
  0
VERTEX
  8
0
 10
235.785041
 20
229.052817
 42
0.009429
  0
VERTEX
  8
0
 10
235.315498
 20
218.430196
 42
0.044862
  0
VERTEX
  8
0
 10
235.706106
 20
212.368289
 42
0.047693
  0
VERTEX
  8
0
 10
236.177292
 20
210.517770
 42
0.171665
  0
VERTEX
  8
0
 10
236.935966
 20
209.588468
 42
0.098341
  0
VERTEX
  8
0
 10
238.370087
 20
209.064855
 42
0.010341
  0
VERTEX
  8
0
 10
241.926088
 20
208.587872
 42
0.018031
  0
VERTEX
  8
0
 10
245.788731
 20
208.291411
 42
0.001089
  0
VERTEX
  8
0
 10
257.408358
 20
207.845401
 42
0.001628
  0
VERTEX
  8
0
 10
271.254204
 20
207.389283
 42
0.001203
  0
VERTEX
  8
0
 10
286.579950
 20
206.971262
 42
-0.000332
  0
VERTEX
  8
0
 10
302.950732
 20
206.553268
 42
-0.000296
  0
VERTEX
  8
0
 10
319.955405
 20
206.097723
 42
-0.000297
  0
VERTEX
  8
0
 10
335.238978
 20
205.670151
 42
-0.000922
  0
VERTEX
  8
0
 10
345.544834
 20
205.356695
 42
0.003493
  0
VERTEX
  8
0
 10
354.778156
 20
205.123371
 42
0.009730
  0
VERTEX
  8
0
 10
361.262438
 20
205.131025
 42
0.009646
  0
VERTEX
  8
0
 10
365.890987
 20
205.315949
 42
0.108466
  0
VERTEX
  8
0
 10
367.650617
 20
205.813016
 42
0.169546
  0
VERTEX
  8
0
 10
368.829902
 20
207.095502
 42
0.073004
  0
VERTEX
  8
0
 10
369.439436
 20
209.369825
 42
0.024523
  0
VERTEX
  8
0
 10
369.731867
 20
213.723613
 42
0.002057
  0
VERTEX
  8
0
 10
369.888847
 20
225.004217
 42
0.000000
  0
VERTEX
  8
0
 10
370.066129
 20
243.092432
 42
0.000000
  0
VERTEX
  8
0
 10
367.416068
 20
245.296216
 42
-0.003816
  0
VERTEX
  8
0
 10
366.145027
 20
246.369724
 42
-0.001675
  0
VERTEX
  8
0
 10
364.477267
 20
247.809971
 42
-0.001657
  0
VERTEX
  8
0
 10
362.717763
 20
249.350037
 42
-0.002220
  0
VERTEX
  8
0
 10
361.133003
 20
250.759005
 42
-0.007502
  0
VERTEX
  8
0
 10
358.813698
 20
252.903216
 42
-0.121324
  0
VERTEX
  8
0
 10
358.245549
 20
253.793259
 42
-0.269128
  0
VERTEX
  8
0
 10
358.396687
 20
254.542192
 42
-0.045823
  0
VERTEX
  8
0
 10
359.500000
 20
255.578904
 42
-0.028324
  0
VERTEX
  8
0
 10
360.612504
 20
256.349965
 42
-0.007465
  0
VERTEX
  8
0
 10
362.476885
 20
257.453661
 42
-0.007553
  0
VERTEX
  8
0
 10
364.640001
 20
258.647973
 42
-0.007688
  0
VERTEX
  8
0
 10
366.825568
 20
259.769164
 42
0.026314
  0
VERTEX
  8
0
 10
369.060509
 20
261.022911
 42
0.020013
  0
VERTEX
  8
0
 10
371.372364
 20
262.617694
 42
0.020385
  0
VERTEX
  8
0
 10
373.424165
 20
264.292748
 42
0.043864
  0
VERTEX
  8
0
 10
374.825568
 20
265.773986
 42
-0.010272
  0
VERTEX
  8
0
 10
376.270926
 20
267.523148
 42
-0.002919
  0
VERTEX
  8
0
 10
378.588677
 20
270.182011
 42
-0.002939
  0
VERTEX
  8
0
 10
381.241605
 20
273.154349
 42
-0.003108
  0
VERTEX
  8
0
 10
383.880568
 20
276.040027
 42
-0.019570
  0
VERTEX
  8
0
 10
388.968679
 20
281.120779
 42
-0.220549
  0
VERTEX
  8
0
 10
391.615016
 20
281.972534
 42
-0.231109
  0
VERTEX
  8
0
 10
393.899531
 20
280.485570
 42
-0.021476
  0
VERTEX
  8
0
 10
397.199063
 20
274.396828
 42
0.036685
  0
VERTEX
  8
0
 10
400.228068
 20
269.191417
 42
0.053727
  0
VERTEX
  8
0
 10
403.670358
 20
265.167792
 42
0.051666
  0
VERTEX
  8
0
 10
407.996096
 20
261.862148
 42
0.030905
  0
VERTEX
  8
0
 10
413.719663
 20
258.827729
 42
-0.037379
  0
VERTEX
  8
0
 10
418.402477
 20
256.266950
 42
-0.199509
  0
VERTEX
  8
0
 10
420.017782
 20
253.915000
 42
-0.214770
  0
VERTEX
  8
0
 10
419.430550
 20
251.227845
 42
-0.043536
  0
VERTEX
  8
0
 10
416.113034
 20
247.485386
 42
0.024499
  0
VERTEX
  8
0
 10
413.940238
 20
245.214417
 42
0.071295
  0
VERTEX
  8
0
 10
412.767752
 20
243.393089
 42
0.064738
  0
VERTEX
  8
0
 10
412.094125
 20
241.217958
 42
0.017696
  0
VERTEX
  8
0
 10
411.607303
 20
237.651054
 42
0.015967
  0
VERTEX
  8
0
 10
411.244396
 20
232.347981
 42
0.003455
  0
VERTEX
  8
0
 10
410.973519
 20
223.163832
 42
0.003736
  0
VERTEX
  8
0
 10
410.832303
 20
213.814415
 42
0.010837
  0
VERTEX
  8
0
 10
410.923105
 20
207.347825
 42
0.220934
  0
VERTEX
  8
0
 10
411.917033
 20
205.394026
 42
0.096097
  0
VERTEX
  8
0
 10
414.569887
 20
204.034054
 42
0.053602
  0
VERTEX
  8
0
 10
419.084506
 20
203.235810
 42
0.017187
  0
VERTEX
  8
0
 10
425.899223
 20
203.007211
 42
-0.009369
  0
VERTEX
  8
0
 10
430.071465
 20
202.932527
 42
-0.004005
  0
VERTEX
  8
0
 10
435.645397
 20
202.683516
 42
-0.003961
  0
VERTEX
  8
0
 10
441.584809
 20
202.323294
 42
-0.005202
  0
VERTEX
  8
0
 10
447.000000
 20
201.895145
 42
0.010119
  0
VERTEX
  8
0
 10
453.332105
 20
201.457110
 42
0.010279
  0
VERTEX
  8
0
 10
459.643677
 20
201.278618
 42
0.010157
  0
VERTEX
  8
0
 10
466.029225
 20
201.359072
 42
0.009359
  0
VERTEX
  8
0
 10
472.583331
 20
201.697759
 42
0.006332
  0
VERTEX
  8
0
 10
480.424036
 20
202.350113
 42
0.030506
  0
VERTEX
  8
0
 10
484.844015
 20
203.048292
 42
0.040058
  0
VERTEX
  8
0
 10
488.574476
 20
204.192990
 42
0.016392
  0
VERTEX
  8
0
 10
493.437123
 20
206.309825
 42
-0.021666
  0
VERTEX
  8
0
 10
499.177433
 20
208.737063
 42
-0.059981
  0
VERTEX
  8
0
 10
503.433293
 20
209.764564
 42
-0.068054
  0
VERTEX
  8
0
 10
507.495022
 20
209.688124
 42
-0.034418
  0
VERTEX
  8
0
 10
512.495365
 20
208.551432
 42
0.005245
  0
VERTEX
  8
0
 10
514.382699
 20
208.004953
 42
0.007488
  0
VERTEX
  8
0
 10
516.069694
 20
207.562715
 42
0.004465
  0
VERTEX
  8
0
 10
517.492432
 20
207.225883
 42
0.104702
  0
VERTEX
  8
0
 10
517.904295
 20
207.219748
 42
-0.106264
  0
VERTEX
  8
0
 10
519.867730
 20
207.184435
 42
-0.024900
  0
VERTEX
  8
0
 10
523.047437
 20
206.271794
 42
-0.026595
  0
VERTEX
  8
0
 10
526.241045
 20
204.987055
 42
-0.059441
  0
VERTEX
  8
0
 10
528.462492
 20
203.611607
 42
-0.046623
  0
VERTEX
  8
0
 10
529.871115
 20
202.255743
 42
-0.071690
  0
VERTEX
  8
0
 10
530.780205
 20
200.831695
 42
-0.060027
  0
VERTEX
  8
0
 10
531.348201
 20
199.028281
 42
-0.023555
  0
VERTEX
  8
0
 10
531.707705
 20
196.441780
 42
-0.046617
  0
VERTEX
  8
0
 10
531.696970
 20
191.475207
 42
-0.222942
  0
VERTEX
  8
0
 10
530.291949
 20
189.099270
 42
-0.142634
  0
VERTEX
  8
0
 10
527.084716
 20
188.055294
 42
-0.016378
  0
VERTEX
  8
0
 10
519.413704
 20
188.066188
 42
0.007231
  0
VERTEX
  8
0
 10
513.644911
 20
188.179919
 42
0.001209
  0
VERTEX
  8
0
 10
502.571526
 20
188.211299
 42
0.001324
  0
VERTEX
  8
0
 10
489.552577
 20
188.182234
 42
0.001174
  0
VERTEX
  8
0
 10
476.000000
 20
188.084259
 42
-0.000746
  0
VERTEX
  8
0
 10
462.029158
 20
187.971288
 42
-0.000699
  0
VERTEX
  8
0
 10
447.753924
 20
187.897101
 42
-0.000695
  0
VERTEX
  8
0
 10
435.087677
 20
187.866591
 42
-0.002404
  0
VERTEX
  8
0
 10
426.885698
 20
187.897676
 42
0.003978
  0
VERTEX
  8
0
 10
419.167421
 20
187.902635
 42
0.015734
  0
VERTEX
  8
0
 10
414.424465
 20
187.718612
 42
0.020180
  0
VERTEX
  8
0
 10
411.340938
 20
187.376178
 42
0.183809
  0
VERTEX
  8
0
 10
410.184714
 20
186.722566
 42
0.108076
  0
VERTEX
  8
0
 10
409.725762
 20
185.835395
 42
0.014117
  0
VERTEX
  8
0
 10
409.230017
 20
183.754323
 42
0.015886
  0
VERTEX
  8
0
 10
408.784251
 20
181.216203
 42
0.012681
  0
VERTEX
  8
0
 10
408.460661
 20
178.456598
 42
-0.032491
  0
VERTEX
  8
0
 10
407.279416
 20
170.961895
 42
-0.023466
  0
VERTEX
  8
0
 10
405.036845
 20
162.801974
 42
-0.021252
  0
VERTEX
  8
0
 10
401.763578
 20
154.042762
 42
-0.016158
  0
VERTEX
  8
0
 10
397.468504
 20
144.737460
 42
0.008017
  0
VERTEX
  8
0
 10
395.437241
 20
140.518598
 42
0.011871
  0
VERTEX
  8
0
 10
393.804965
 20
136.752132
 42
0.007136
  0
VERTEX
  8
0
 10
392.569959
 20
133.576726
 42
0.182760
  0
VERTEX
  8
0
 10
392.574397
 20
132.666719
 42
0.232948
  0
VERTEX
  8
0
 10
394.254951
 20
131.111584
 42
0.027622
  0
VERTEX
  8
0
 10
399.343978
 20
129.900175
 42
0.026594
  0
VERTEX
  8
0
 10
406.242361
 20
129.031344
 42
0.014546
  0
VERTEX
  8
0
 10
414.761070
 20
128.664629
 42
0.015385
  0
VERTEX
  8
0
 10
423.793172
 20
128.816699
 42
0.090208
  0
VERTEX
  8
0
 10
428.397413
 20
129.882769
 42
0.123499
  0
VERTEX
  8
0
 10
431.632330
 20
132.358412
 42
0.039527
  0
VERTEX
  8
0
 10
435.040333
 20
137.417471
 42
-0.047685
  0
VERTEX
  8
0
 10
437.746186
 20
141.296357
 42
-0.149446
  0
VERTEX
  8
0
 10
440.393105
 20
142.991827
 42
-0.077924
  0
VERTEX
  8
0
 10
444.504867
 20
143.477075
 42
-0.007223
  0
VERTEX
  8
0
 10
454.757688
 20
142.938230
 42
-0.017416
  0
VERTEX
  8
0
 10
462.910990
 20
142.105491
 42
-0.034530
  0
VERTEX
  8
0
 10
469.270010
 20
140.779047
 42
-0.031367
  0
VERTEX
  8
0
 10
475.764411
 20
138.500797
 42
-0.011991
  0
VERTEX
  8
0
 10
484.500000
 20
134.556870
 42
0.005777
  0
VERTEX
  8
0
 10
486.741787
 20
133.511025
 42
0.003762
  0
VERTEX
  8
0
 10
489.353125
 20
132.352909
 42
0.003783
  0
VERTEX
  8
0
 10
491.918003
 20
131.261411
 42
0.007199
  0
VERTEX
  8
0
 10
494.000000
 20
130.428922
 42
-0.018636
  0
VERTEX
  8
0
 10
509.546200
 20
123.796472
 42
-0.030180
  0
VERTEX
  8
0
 10
522.150159
 20
116.896833
 42
-0.036002
  0
VERTEX
  8
0
 10
531.513102
 20
110.024568
 42
-0.090829
  0
VERTEX
  8
0
 10
536.837911
 20
103.500000
 42
0.771297
  0
VERTEX
  8
0
 10
537.428522
 20
103.648620
 42
0.000433
  0
VERTEX
  8
0
 10
537.697757
 20
132.217474
 42
0.001671
  0
VERTEX
  8
0
 10
537.902052
 20
171.394077
 42
0.000411
  0
VERTEX
  8
0
 10
537.969591
 20
235.750000
 42
0.000000
  0
VERTEX
  8
0
 10
538.000000
 20
370.000000
 42
0.000000
  0
VERTEX
  8
0
 10
269.000000
 20
370.000000
 42
0.000000
  0
VERTEX
  8
0
 10
0.000000
 20
370.000000
 42
0.000000
  0
SEQEND
  0
POLYLINE
  8
0
 66
1
 70
1
  0
VERTEX
  8
0
 10
182.851821
 20
200.979844
 42
0.055785
  0
VERTEX
  8
0
 10
177.096007
 20
199.332570
 42
0.018390
  0
VERTEX
  8
0
 10
169.073821
 20
195.682783
 42
0.018561
  0
VERTEX
  8
0
 10
161.298753
 20
191.426490
 42
0.051393
  0
VERTEX
  8
0
 10
156.304861
 20
187.703024
 42
0.053712
  0
VERTEX
  8
0
 10
153.256295
 20
184.227847
 42
0.055433
  0
VERTEX
  8
0
 10
151.055283
 20
180.218233
 42
0.042427
  0
VERTEX
  8
0
 10
149.393115
 20
174.965468
 42
0.016668
  0
VERTEX
  8
0
 10
147.970273
 20
167.500000
 42
0.023476
  0
VERTEX
  8
0
 10
147.383552
 20
162.091303
 42
0.045974
  0
VERTEX
  8
0
 10
147.516749
 20
157.764271
 42
0.050902
  0
VERTEX
  8
0
 10
148.414360
 20
153.831101
 42
0.036430
  0
VERTEX
  8
0
 10
150.168244
 20
149.670214
 42
0.030528
  0
VERTEX
  8
0
 10
151.797177
 20
146.907717
 42
0.040655
  0
VERTEX
  8
0
 10
153.617648
 20
144.633726
 42
0.026626
  0
VERTEX
  8
0
 10
156.313643
 20
142.065105
 42
0.005989
  0
VERTEX
  8
0
 10
161.179369
 20
138.000000
 42
-0.008992
  0
VERTEX
  8
0
 10
165.878581
 20
134.025847
 42
-0.028821
  0
VERTEX
  8
0
 10
168.800254
 20
131.149357
 42
-0.043698
  0
VERTEX
  8
0
 10
170.490272
 20
128.918036
 42
-0.141147
  0
VERTEX
  8
0
 10
171.000000
 20
127.148352
 42
-0.109851
  0
VERTEX
  8
0
 10
170.608589
 20
125.388299
 42
-0.075400
  0
VERTEX
  8
0
 10
169.469641
 20
123.680476
 42
-0.077419
  0
VERTEX
  8
0
 10
167.914423
 20
122.429024
 42
-0.131515
  0
VERTEX
  8
0
 10
166.311551
 20
122.000000
 42
0.186281
  0
VERTEX
  8
0
 10
164.094899
 20
121.144475
 42
0.027446
  0
VERTEX
  8
0
 10
160.654635
 20
117.661568
 42
0.030539
  0
VERTEX
  8
0
 10
157.214035
 20
113.258489
 42
0.036823
  0
VERTEX
  8
0
 10
154.567032
 20
108.726535
 42
0.027652
  0
VERTEX
  8
0
 10
152.227871
 20
103.189647
 42
0.016197
  0
VERTEX
  8
0
 10
150.017718
 20
96.338206
 42
0.015749
  0
VERTEX
  8
0
 10
148.161645
 20
89.012953
 42
0.018766
  0
VERTEX
  8
0
 10
146.891765
 20
82.000000
 42
-0.001750
  0
VERTEX
  8
0
 10
145.452847
 20
72.153512
 42
-0.006080
  0
VERTEX
  8
0
 10
144.423085
 20
65.803499
 42
-0.008150
  0
VERTEX
  8
0
 10
143.599498
 20
61.503204
 42
-0.042921
  0
VERTEX
  8
0
 10
142.909772
 20
59.202947
 42
0.044337
  0
VERTEX
  8
0
 10
142.559403
 20
58.022332
 42
0.016063
  0
VERTEX
  8
0
 10
142.267246
 20
56.297079
 42
0.015783
  0
VERTEX
  8
0
 10
142.066782
 20
54.377695
 42
0.018127
  0
VERTEX
  8
0
 10
142.000000
 20
52.536280
 42
-0.022110
  0
VERTEX
  8
0
 10
141.924840
 20
50.837449
 42
-0.031774
  0
VERTEX
  8
0
 10
141.696940
 20
49.349221
 42
-0.032757
  0
VERTEX
  8
0
 10
141.369300
 20
48.213972
 42
-0.229555
  0
VERTEX
  8
0
 10
140.968308
 20
47.822769
 42
0.232836
  0
VERTEX
  8
0
 10
140.560966
 20
47.420389
 42
0.028974
  0
VERTEX
  8
0
 10
140.211731
 20
46.187682
 42
0.029301
  0
VERTEX
  8
0
 10
139.953017
 20
44.580034
 42
0.020229
  0
VERTEX
  8
0
 10
139.841485
 20
42.739436
 42
-0.017323
  0
VERTEX
  8
0
 10
139.741990
 20
40.922719
 42
-0.028053
  0
VERTEX
  8
0
 10
139.517803
 20
39.392209
 42
-0.027212
  0
VERTEX
  8
0
 10
139.219613
 20
38.252709
 42
-0.325971
  0
VERTEX
  8
0
 10
138.873177
 20
38.000000
 42
0.359060
  0
VERTEX
  8
0
 10
138.526911
 20
37.714536
 42
0.014947
  0
VERTEX
  8
0
 10
138.249488
 20
36.017187
 42
0.020004
  0
VERTEX
  8
0
 10
138.048167
 20
33.837879
 42
0.012145
  0
VERTEX
  8
0
 10
137.976143
 20
31.250000
 42
-0.012710
  0
VERTEX
  8
0
 10
137.892807
 20
28.372514
 42
-0.010448
  0
VERTEX
  8
0
 10
137.661697
 20
25.307813
 42
-0.010591
  0
VERTEX
  8
0
 10
137.330756
 20
22.500495
 42
-0.027390
  0
VERTEX
  8
0
 10
136.939190
 20
20.500000
 42
0.007185
  0
VERTEX
  8
0
 10
136.489624
 20
18.611364
 42
0.003574
  0
VERTEX
  8
0
 10
135.971530
 20
16.206250
 42
0.003546
  0
VERTEX
  8
0
 10
135.470097
 20
13.706058
 42
0.005203
  0
VERTEX
  8
0
 10
135.067675
 20
11.500000
 42
-0.007838
  0
VERTEX
  8
0
 10
134.663338
 20
9.347751
 42
-0.006050
  0
VERTEX
  8
0
 10
134.157438
 20
7.014063
 42
-0.006121
  0
VERTEX
  8
0
 10
133.631693
 20
4.845214
 42
-0.014550
  0
VERTEX
  8
0
 10
133.174434
 20
3.250000
 42
0.000000
  0
VERTEX
  8
0
 10
132.139611
 20
0.000000
 42
0.000000
  0
VERTEX
  8
0
 10
335.069806
 20
0.000000
 42
0.000000
  0
VERTEX
  8
0
 10
538.000000
 20
0.000000
 42
0.000000
  0
VERTEX
  8
0
 10
537.969591
 20
47.250000
 42
0.001130
  0
VERTEX
  8
0
 10
537.903462
 20
70.023195
 42
0.004936
  0
VERTEX
  8
0
 10
537.700882
 20
83.495317
 42
0.003946
  0
VERTEX
  8
0
 10
537.409790
 20
92.366838
 42
0.759909
  0
VERTEX
  8
0
 10
536.842293
 20
92.500000
 42
-0.059504
  0
VERTEX
  8
0
 10
534.216990
 20
88.826651
 42
-0.027955
  0
VERTEX
  8
0
 10
530.042281
 20
84.733649
 42
-0.027935
  0
VERTEX
  8
0
 10
525.453654
 20
81.144632
 42
-0.061727
  0
VERTEX
  8
0
 10
521.525702
 20
79.076610
 42
0.006080
  0
VERTEX
  8
0
 10
519.015966
 20
78.093122
 42
0.002207
  0
VERTEX
  8
0
 10
515.479425
 20
76.639192
 42
0.002188
  0
VERTEX
  8
0
 10
511.622685
 20
75.013843
 42
0.002608
  0
VERTEX
  8
0
 10
508.000000
 20
73.446043
 42
-0.016395
  0
VERTEX
  8
0
 10
501.281981
 20
70.756042
 42
-0.009220
  0
VERTEX
  8
0
 10
492.966933
 20
67.911277
 42
-0.008488
  0
VERTEX
  8
0
 10
483.600071
 20
65.072929
 42
-0.007259
  0
VERTEX
  8
0
 10
473.642166
 20
62.394768
 42
-0.036693
  0
VERTEX
  8
0
 10
467.655145
 20
61.337072
 42
-0.037224
  0
VERTEX
  8
0
 10
461.606822
 20
61.173153
 42
-0.036264
  0
VERTEX
  8
0
 10
456.679525
 20
61.766358
 42
-0.306660
  0
VERTEX
  8
0
 10
455.183085
 20
63.268871
 42
-0.141602
  0
VERTEX
  8
0
 10
455.266963
 20
64.167483
 42
-0.109195
  0
VERTEX
  8
0
 10
455.818819
 20
64.988258
 42
-0.069225
  0
VERTEX
  8
0
 10
456.916942
 20
65.777378
 42
-0.024622
  0
VERTEX
  8
0
 10
458.673042
 20
66.594786
 42
0.004677
  0
VERTEX
  8
0
 10
460.431216
 20
67.329360
 42
0.002570
  0
VERTEX
  8
0
 10
462.570137
 20
68.259647
 42
0.002561
  0
VERTEX
  8
0
 10
464.731173
 20
69.226040
 42
0.004095
  0
VERTEX
  8
0
 10
466.565724
 20
70.075914
 42
-0.009126
  0
VERTEX
  8
0
 10
468.199013
 20
70.812681
 42
-0.011357
  0
VERTEX
  8
0
 10
469.744031
 20
71.434800
 42
-0.009729
  0
VERTEX
  8
0
 10
471.054565
 20
71.899311
 42
-0.080466
  0
VERTEX
  8
0
 10
471.676178
 20
72.000000
 42
0.111341
  0
VERTEX
  8
0
 10
472.286663
 20
72.137650
 42
0.012657
  0
VERTEX
  8
0
 10
473.556572
 20
72.780882
 42
0.014805
  0
VERTEX
  8
0
 10
475.044591
 20
73.640331
 42
0.011539
  0
VERTEX
  8
0
 10
476.610453
 20
74.658322
 42
-0.012056
  0
VERTEX
  8
0
 10
478.517010
 20
75.895004
 42
-0.005296
  0
VERTEX
  8
0
 10
481.096814
 20
77.443942
 42
-0.005238
  0
VERTEX
  8
0
 10
483.869631
 20
79.030271
 42
-0.006995
  0
VERTEX
  8
0
 10
486.421253
 20
80.408322
 42
0.012851
  0
VERTEX
  8
0
 10
488.719477
 20
81.684506
 42
0.017332
  0
VERTEX
  8
0
 10
490.725334
 20
82.962448
 42
0.014439
  0
VERTEX
  8
0
 10
492.300146
 20
84.112581
 42
0.149257
  0
VERTEX
  8
0
 10
492.758492
 20
84.761715
 42
0.431112
  0
VERTEX
  8
0
 10
489.954225
 20
89.949037
 42
0.005041
  0
VERTEX
  8
0
 10
448.155217
 20
100.668589
 42
0.012605
  0
VERTEX
  8
0
 10
407.691835
 20
109.536772
 42
0.047672
  0
VERTEX
  8
0
 10
381.915617
 20
112.000000
 42
0.011916
  0
VERTEX
  8
0
 10
377.568512
 20
111.896383
 42
0.060094
  0
VERTEX
  8
0
 10
375.177692
 20
111.491627
 42
0.074845
  0
VERTEX
  8
0
 10
373.200163
 20
110.567495
 42
0.024470
  0
VERTEX
  8
0
 10
370.602992
 20
108.651885
 42
-0.030779
  0
VERTEX
  8
0
 10
362.524651
 20
102.849324
 42
-0.008532
  0
VERTEX
  8
0
 10
349.165959
 20
94.763606
 42
-0.006989
  0
VERTEX
  8
0
 10
336.663919
 20
87.717041
 42
-0.826511
  0
VERTEX
  8
0
 10
336.009770
 20
88.511772
 42
0.145500
  0
VERTEX
  8
0
 10
336.255881
 20
89.087845
 42
0.519902
  0
VERTEX
  8
0
 10
336.008032
 20
89.308177
 42
0.053272
  0
VERTEX
  8
0
 10
334.815750
 20
88.888254
 42
0.005987
  0
VERTEX
  8
0
 10
332.235442
 20
87.619307
 42
0.011293
  0
VERTEX
  8
0
 10
330.229194
 20
86.545051
 42
0.017052
  0
VERTEX
  8
0
 10
328.537911
 20
85.512083
 42
0.011929
  0
VERTEX
  8
0
 10
327.215532
 20
84.595208
 42
0.239606
  0
VERTEX
  8
0
 10
327.000000
 20
84.171265
 42
-0.320902
  0
VERTEX
  8
0
 10
326.530578
 20
83.515174
 42
-0.002649
  0
VERTEX
  8
0
 10
320.204432
 20
81.394751
 42
-0.007886
  0
VERTEX
  8
0
 10
312.649454
 20
79.038294
 42
-0.004567
  0
VERTEX
  8
0
 10
303.500000
 20
76.432682
 42
0.000751
  0
VERTEX
  8
0
 10
301.109828
 20
75.771681
 42
0.000345
  0
VERTEX
  8
0
 10
297.997170
 20
74.903528
 42
0.000342
  0
VERTEX
  8
0
 10
294.723302
 20
73.985563
 42
0.000473
  0
VERTEX
  8
0
 10
291.788239
 20
73.157435
 42
-0.008904
  0
VERTEX
  8
0
 10
289.177044
 20
72.468001
 42
-0.013648
  0
VERTEX
  8
0
 10
286.889950
 20
71.973259
 42
-0.008062
  0
VERTEX
  8
0
 10
284.989096
 20
71.647708
 42
-0.239131
  0
VERTEX
  8
0
 10
284.538239
 20
71.795095
 42
-0.296781
  0
VERTEX
  8
0
 10
284.166556
 20
73.552745
 42
-0.136707
  0
VERTEX
  8
0
 10
285.626192
 20
75.511811
 42
-0.050374
  0
VERTEX
  8
0
 10
289.553905
 20
77.963724
 42
-0.010233
  0
VERTEX
  8
0
 10
297.000000
 20
81.441389
 42
0.036790
  0
VERTEX
  8
0
 10
304.497365
 20
85.440574
 42
0.024778
  0
VERTEX
  8
0
 10
312.434882
 20
91.025092
 42
0.020568
  0
VERTEX
  8
0
 10
321.194386
 20
98.460026
 42
0.011568
  0
VERTEX
  8
0
 10
331.230569
 20
108.153958
 42
0.015693
  0
VERTEX
  8
0
 10
344.532220
 20
122.483218
 42
0.041319
  0
VERTEX
  8
0
 10
352.829238
 20
133.761775
 42
0.048314
  0
VERTEX
  8
0
 10
358.412315
 20
145.170445
 42
0.029077
  0
VERTEX
  8
0
 10
362.874900
 20
159.575344
 42
0.002611
  0
VERTEX
  8
0
 10
365.378225
 20
169.936624
 42
0.013908
  0
VERTEX
  8
0
 10
366.558281
 20
175.640065
 42
0.022657
  0
VERTEX
  8
0
 10
367.138357
 20
180.046081
 42
0.016645
  0
VERTEX
  8
0
 10
367.395995
 20
184.966868
 42
0.000000
  0
VERTEX
  8
0
 10
367.500000
 20
190.433737
 42
0.000000
  0
VERTEX
  8
0
 10
363.500000
 20
191.119159
 42
0.034321
  0
VERTEX
  8
0
 10
360.688112
 20
191.404390
 42
0.001412
  0
VERTEX
  8
0
 10
350.540625
 20
191.705377
 42
0.002451
  0
VERTEX
  8
0
 10
338.507966
 20
191.969240
 42
0.001736
  0
VERTEX
  8
0
 10
325.000000
 20
192.152290
 42
0.000000
  0
VERTEX
  8
0
 10
290.500000
 20
192.500000
 42
0.000000
  0
VERTEX
  8
0
 10
290.326338
 20
159.000000
 42
-0.002812
  0
VERTEX
  8
0
 10
290.180990
 20
145.552603
 42
-0.003335
  0
VERTEX
  8
0
 10
289.887515
 20
132.851456
 42
-0.002904
  0
VERTEX
  8
0
 10
289.506255
 20
122.140440
 42
-0.021242
  0
VERTEX
  8
0
 10
289.076338
 20
117.026234
 42
0.005772
  0
VERTEX
  8
0
 10
288.664267
 20
113.452519
 42
0.005109
  0
VERTEX
  8
0
 10
288.316174
 20
109.721877
 42
0.005136
  0
VERTEX
  8
0
 10
288.071502
 20
106.355212
 42
0.015570
  0
VERTEX
  8
0
 10
288.000000
 20
104.059667
 42
-0.054042
  0
VERTEX
  8
0
 10
287.373307
 20
98.278374
 42
-0.072253
  0
VERTEX
  8
0
 10
285.515695
 20
93.346377
 42
-0.054949
  0
VERTEX
  8
0
 10
281.903758
 20
88.225019
 42
-0.018713
  0
VERTEX
  8
0
 10
275.614905
 20
81.627652
 42
-0.017013
  0
VERTEX
  8
0
 10
268.849276
 20
75.476140
 42
-0.044489
  0
VERTEX
  8
0
 10
263.487831
 20
71.689286
 42
-0.057193
  0
VERTEX
  8
0
 10
258.406278
 20
69.469982
 42
-0.048841
  0
VERTEX
  8
0
 10
252.674932
 20
68.308749
 42
-0.015395
  0
VERTEX
  8
0
 10
249.795111
 20
68.102454
 42
-0.065913
  0
VERTEX
  8
0
 10
248.084353
 20
68.258410
 42
-0.096772
  0
VERTEX
  8
0
 10
246.815936
 20
68.818002
 42
-0.057127
  0
VERTEX
  8
0
 10
245.569805
 20
69.916604
 42
-0.110277
  0
VERTEX
  8
0
 10
244.503010
 20
71.804068
 42
-0.064754
  0
VERTEX
  8
0
 10
244.073916
 20
74.373978
 42
-0.022824
  0
VERTEX
  8
0
 10
244.117429
 20
78.941942
 42
-0.001898
  0
VERTEX
  8
0
 10
244.816093
 20
90.777854
 42
0.006734
  0
VERTEX
  8
0
 10
245.920929
 20
113.175691
 42
0.001668
  0
VERTEX
  8
0
 10
247.114679
 20
149.912166
 42
0.000128
  0
VERTEX
  8
0
 10
248.308745
 20
191.228409
 42
0.206366
  0
VERTEX
  8
0
 10
247.783385
 20
192.549948
 42
0.160796
  0
VERTEX
  8
0
 10
247.341542
 20
192.772466
 42
0.006799
  0
VERTEX
  8
0
 10
245.580726
 20
193.009970
 42
0.011103
  0
VERTEX
  8
0
 10
243.454352
 20
193.219604
 42
0.007611
  0
VERTEX
  8
0
 10
241.033900
 20
193.367052
 42
0.009100
  0
VERTEX
  8
0
 10
237.446525
 20
193.465443
 42
0.065235
  0
VERTEX
  8
0
 10
235.729431
 20
193.256541
 42
0.141174
  0
VERTEX
  8
0
 10
234.736762
 20
192.672456
 42
0.102091
  0
VERTEX
  8
0
 10
234.056619
 20
191.575414
 42
0.062567
  0
VERTEX
  8
0
 10
233.713695
 20
190.087604
 42
0.002629
  0
VERTEX
  8
0
 10
233.190844
 20
184.675278
 42
0.004500
  0
VERTEX
  8
0
 10
232.661530
 20
178.238378
 42
0.003180
  0
VERTEX
  8
0
 10
232.178112
 20
171.000000
 42
-0.005660
  0
VERTEX
  8
0
 10
231.226712
 20
157.743596
 42
-0.029269
  0
VERTEX
  8
0
 10
230.190644
 20
150.469908
 42
-0.040945
  0
VERTEX
  8
0
 10
228.465510
 20
144.512231
 42
-0.018367
  0
VERTEX
  8
0
 10
225.285578
 20
137.000000
 42
0.000228
  0
VERTEX
  8
0
 10
223.860116
 20
133.946051
 42
0.000247
  0
VERTEX
  8
0
 10
222.475287
 20
130.971791
 42
0.000232
  0
VERTEX
  8
0
 10
221.290671
 20
128.421153
 42
0.001203
  0
VERTEX
  8
0
 10
220.640356
 20
127.010352
 42
-0.039360
  0
VERTEX
  8
0
 10
217.396303
 20
121.186150
 42
-0.017966
  0
VERTEX
  8
0
 10
212.313483
 20
114.108502
 42
-0.016459
  0
VERTEX
  8
0
 10
205.963294
 20
106.440206
 42
-0.013818
  0
VERTEX
  8
0
 10
198.751548
 20
98.732968
 42
-0.009790
  0
VERTEX
  8
0
 10
191.018313
 20
91.213498
 42
-0.035825
  0
VERTEX
  8
0
 10
185.706898
 20
86.916735
 42
-0.046879
  0
VERTEX
  8
0
 10
180.609592
 20
84.032798
 42
-0.026735
  0
VERTEX
  8
0
 10
174.000000
 20
81.486451
 42
0.016828
  0
VERTEX
  8
0
 10
171.639405
 20
80.630323
 42
0.012514
  0
VERTEX
  8
0
 10
169.092748
 20
79.533746
 42
0.012682
  0
VERTEX
  8
0
 10
166.740344
 20
78.377060
 42
0.027804
  0
VERTEX
  8
0
 10
165.017865
 20
77.349364
 42
-0.071106
  0
VERTEX
  8
0
 10
162.024825
 20
75.897784
 42
-0.047373
  0
VERTEX
  8
0
 10
158.294873
 20
75.083590
 42
-0.048495
  0
VERTEX
  8
0
 10
154.718257
 20
75.000153
 42
-0.123720
  0
VERTEX
  8
0
 10
152.273811
 20
75.809614
 42
-0.278452
  0
VERTEX
  8
0
 10
151.406351
 20
77.553082
 42
-0.077249
  0
VERTEX
  8
0
 10
152.150146
 20
80.650772
 42
-0.063753
  0
VERTEX
  8
0
 10
154.085293
 20
84.052816
 42
-0.070340
  0
VERTEX
  8
0
 10
156.761073
 20
86.730948
 42
0.026894
  0
VERTEX
  8
0
 10
160.281143
 20
89.690837
 42
0.023152
  0
VERTEX
  8
0
 10
163.652621
 20
93.156934
 42
0.018082
  0
VERTEX
  8
0
 10
167.363194
 20
97.660966
 42
0.007763
  0
VERTEX
  8
0
 10
172.000000
 20
103.922348
 42
0.006043
  0
VERTEX
  8
0
 10
175.864405
 20
109.453737
 42
0.024495
  0
VERTEX
  8
0
 10
178.007979
 20
112.959901
 42
0.020157
  0
VERTEX
  8
0
 10
179.986368
 20
116.958546
 42
0.003174
  0
VERTEX
  8
0
 10
183.508183
 20
125.000000
 42
0.018967
  0
VERTEX
  8
0
 10
187.331175
 20
134.900055
 42
0.046864
  0
VERTEX
  8
0
 10
189.156198
 20
142.458183
 42
0.029253
  0
VERTEX
  8
0
 10
189.971825
 20
152.055418
 42
0.003885
  0
VERTEX
  8
0
 10
190.349128
 20
172.421320
 42
0.001612
  0
VERTEX
  8
0
 10
190.465870
 20
187.922491
 42
0.010570
  0
VERTEX
  8
0
 10
190.335025
 20
195.695542
 42
0.012767
  0
VERTEX
  8
0
 10
190.034974
 20
200.414158
 42
0.286297
  0
VERTEX
  8
0
 10
189.246022
 20
201.459087
 42
0.010512
  0
VERTEX
  8
0
 10
188.693702
 20
201.657815
 42
0.015565
  0
VERTEX
  8
0
 10
188.201082
 20
201.806556
 42
0.010679
  0
VERTEX
  8
0
 10
187.792243
 20
201.906931
 42
0.210426
  0
VERTEX
  8
0
 10
187.668213
 20
201.882381
 42
-0.105934
  0
VERTEX
  8
0
 10
187.524997
 20
201.821978
 42
-0.000702
  0
VERTEX
  8
0
 10
186.184010
 20
201.568743
 42
-0.002744
  0
VERTEX
  8
0
 10
184.645675
 20
201.289206
 42
-0.001745
  0
SEQEND
  0
POLYLINE
  8
0
 66
1
 70
1
  0
VERTEX
  8
0
 10
331.000000
 20
85.000000
 42
-0.026766
  0
VERTEX
  8
0
 10
330.352293
 20
84.628962
 42
-0.024204
  0
VERTEX
  8
0
 10
329.646875
 20
84.315379
 42
-0.024967
  0
VERTEX
  8
0
 10
328.987337
 20
84.096832
 42
-0.067616
  0
VERTEX
  8
0
 10
328.500000
 20
84.030626
 42
-0.190341
  0
VERTEX
  8
0
 10
328.267727
 20
84.122372
 42
-0.335455
  0
VERTEX
  8
0
 10
328.234375
 20
84.315379
 42
-0.102785
  0
VERTEX
  8
0
 10
328.485814
 20
84.625641
 42
-0.027796
  0
VERTEX
  8
0
 10
329.000000
 20
85.000000
 42
-0.026766
  0
VERTEX
  8
0
 10
329.647707
 20
85.371038
 42
-0.024204
  0
VERTEX
  8
0
 10
330.353125
 20
85.684621
 42
-0.024967
  0
VERTEX
  8
0
 10
331.012663
 20
85.903168
 42
-0.067616
  0
VERTEX
  8
0
 10
331.500000
 20
85.969374
 42
-0.190341
  0
VERTEX
  8
0
 10
331.732273
 20
85.877628
 42
-0.335455
  0
VERTEX
  8
0
 10
331.765625
 20
85.684621
 42
-0.102785
  0
VERTEX
  8
0
 10
331.514186
 20
85.374359
 42
-0.027796
  0
SEQEND
  0
ENDSEC
  0
EOF
